<svg xmlns="http://www.w3.org/2000/svg" width="2000" height="1200" viewBox="0 0 2000 1200">
  <defs>
    <style>
      .cls-1 {
        fill: #4dd0e1;
      }

      .cls-1, .cls-2 {
        fill-rule: evenodd;
      }

      .cls-2 {
        fill: #fff;
      }
    </style>
  </defs>
  <path id="Ellipse_284_copy" data-name="Ellipse 284 copy" class="cls-1" d="M755.639,860.789a59.85,59.85,0,0,0,21.292,73.461,60.742,60.742,0,0,1-10.785-3.5,60.023,60.023,0,1,1,48.031-110.018,60.623,60.623,0,0,1,9.929,5.464A60.3,60.3,0,0,0,755.639,860.789Z"/>
  <path id="Ellipse_284_copy_2" data-name="Ellipse 284 copy 2" class="cls-2" d="M573.518,247.755a3.7,3.7,0,1,1,4.848-1.984A3.7,3.7,0,0,1,573.518,247.755ZM632.544,399.84a5.82,5.82,0,1,1,7.619-3.118A5.82,5.82,0,0,1,632.544,399.84Zm44.62,305.521a4.233,4.233,0,1,1,5.54-2.268A4.233,4.233,0,0,1,677.164,705.361ZM1659.85,937.04a4.232,4.232,0,1,1,5.54-2.267A4.233,4.233,0,0,1,1659.85,937.04Zm-20.88,134.66a2.115,2.115,0,1,1,2.77-1.13A2.118,2.118,0,0,1,1638.97,1071.7ZM315.862,594.109a3.7,3.7,0,1,1,4.848-1.984A3.7,3.7,0,0,1,315.862,594.109Zm781.488-51.968a3.7,3.7,0,1,0,2.02-4.831A3.7,3.7,0,0,0,1097.35,542.141ZM238.168,106.076a2.645,2.645,0,1,1,3.463-1.417A2.645,2.645,0,0,1,238.168,106.076ZM-2.127,442.5a4.233,4.233,0,0,1-2.268-5.54,4.233,4.233,0,0,1,5.54-2.267,4.232,4.232,0,0,1,2.268,5.539A4.234,4.234,0,0,1-2.127,442.5ZM881.735,593.754a1.587,1.587,0,1,1,2.078-.85A1.586,1.586,0,0,1,881.735,593.754ZM995.784,866.416a1.587,1.587,0,1,1,2.078-.85A1.586,1.586,0,0,1,995.784,866.416Zm761.7,331.814a1.587,1.587,0,1,1,2.08-.85A1.588,1.588,0,0,1,1757.48,1198.23ZM887.375,163.306a4.233,4.233,0,1,0,2.314-5.52A4.233,4.233,0,0,0,887.375,163.306ZM1441.14,340.58a1.587,1.587,0,1,1,2.08-.85A1.584,1.584,0,0,1,1441.14,340.58ZM1782.2,823.1a2.117,2.117,0,1,1,2.77-1.134A2.115,2.115,0,0,1,1782.2,823.1Z"/>
</svg>
