<svg id="Group_279_copy" data-name="Group 279 copy" xmlns="http://www.w3.org/2000/svg" width="2000" height="1200" viewBox="0 0 2000 1200">
  <defs>
    <style>
      .cls-1 {
        fill: #528ef4;
      }

      .cls-1, .cls-2, .cls-3, .cls-4 {
        fill-rule: evenodd;
      }

      .cls-2 {
        fill: #6edaea;
        opacity: 0.7;
      }

      .cls-3 {
        fill: #cdf0f4;
      }

      .cls-4 {
        fill: #8c9eff;
      }
    </style>
  </defs>
  <path id="Polygon_3" data-name="Polygon 3" class="cls-1" d="M2147.01,1231.81h-814.3l62.22,80.18h-673.6l57.026-73.48H668.765l15.026,19.36H288.917l18.135-23.37H-285l599.667-167.03L415,1095.42l71.352-91.93,75.787,97.65,102.423-65.18,113.264,72.07,108.6-45.25,21.393,8.91L1058.13,878.017l151.59,195.323,93.73-53.48,127.45,72.72,65.97-29.8,146.95,66.39,54.13-14.08Zm-835.64-27.5,7.27,9.37,36.05-9.37h-43.32Z"/>
  <path id="Polygon_3_copy" data-name="Polygon 3 copy" class="cls-2" d="M1248.89,1230.75l449.06-116.71,6.3,65.07Zm182.14-138.84,65.84-30.19-20.75,97.26Zm-223.65-16.45,96.07-56.66-38.33,108.66ZM972.029,1209.89l-97.774-5.98L872.793,1221,564.5,1195.88l321.925-134.16-3.666,42.83L1057.68,876.058ZM620.385,1172.4l-274.128,65.05,27.891-17.75-85.231,37.11,197.437-254.38-39.843,171.23L664.564,1034.9ZM-285,1233.44l599.667-167.03L201.986,1191.18Z"/>
  <path id="Polygon_4_copy" data-name="Polygon 4 copy" class="cls-3" d="M1026.29,1000.73l-15.33-28.876L980.3,979.072l77.549-101.953Z"/>
  <path id="Polygon_4_copy_3" data-name="Polygon 4 copy 3" class="cls-4" d="M1098.43,950.045l-9.02,34.285-30.66-18.045-32.46,33.383,31.56-123.607,82.96,107.366Z"/>
</svg>
