<svg xmlns="http://www.w3.org/2000/svg" width="2000" height="1200" viewBox="0 0 2000 1200">
  <defs>
    <style>
      .cls-1 {
        fill: #fff;
        fill-rule: evenodd;
      }
    </style>
  </defs>
  <path class="cls-1" d="M1359.09,611.535a3.7,3.7,0,1,1-3.71,3.7A3.7,3.7,0,0,1,1359.09,611.535ZM1245.85,494.086a5.82,5.82,0,1,1-5.82,5.819A5.822,5.822,0,0,1,1245.85,494.086ZM1086.57,229.56a4.232,4.232,0,1,1-4.23,4.232A4.237,4.237,0,0,1,1086.57,229.56ZM90.7,395.682a4.233,4.233,0,1,1-4.233,4.232A4.233,4.233,0,0,1,90.7,395.682ZM57.893,263.419a2.116,2.116,0,1,1-2.117,2.116A2.116,2.116,0,0,1,57.893,263.419ZM1462.8,192.526a3.7,3.7,0,1,1-3.7,3.7A3.706,3.706,0,0,1,1462.8,192.526ZM762.159,542.485a3.7,3.7,0,1,0,0,5.238A3.706,3.706,0,0,0,762.159,542.485Zm960.991,70.108a2.646,2.646,0,1,1-2.65,2.646A2.642,2.642,0,0,1,1723.15,612.593Zm91.54-403.137a4.232,4.232,0,1,1-4.23,4.232A4.229,4.229,0,0,1,1814.69,209.456Zm-873.636,202.1a1.587,1.587,0,1,1-1.588,1.587A1.586,1.586,0,0,1,941.054,411.554ZM730.45,204.165a1.587,1.587,0,1,1-1.588,1.587A1.587,1.587,0,0,1,730.45,204.165Zm-830.775-11.639a1.588,1.588,0,0,1,1.588,1.587,1.587,1.587,0,0,1-1.588,1.587,1.587,1.587,0,0,1-1.587-1.587A1.588,1.588,0,0,1-100.325,192.526ZM1102.28,810.72a4.234,4.234,0,1,0,0,5.985A4.238,4.238,0,0,0,1102.28,810.72ZM523.021,861.248a1.587,1.587,0,1,1-1.588,1.587A1.586,1.586,0,0,1,523.021,861.248ZM21.91,548.049a2.116,2.116,0,1,1-2.117,2.116A2.116,2.116,0,0,1,21.91,548.049Z"/>
</svg>
