<svg xmlns="http://www.w3.org/2000/svg" width="496" height="496" viewBox="0 0 496 496">
  <defs>
    <style>
      .cls-1 {
        fill: #90caf9;
      }

      .cls-2 {
        fill: #ffccbc;
      }

      .cls-2, .cls-3, .cls-4, .cls-5, .cls-6 {
        fill-rule: evenodd;
      }

      .cls-3 {
        fill: #e3f6ff;
      }

      .cls-4 {
        fill: #b0d3e2;
      }

      .cls-5 {
        fill: #263238;
      }

      .cls-6 {
        fill: #fff;
      }
    </style>
  </defs>
  <g id="кфиише_copy" data-name="кфиише copy">
    <circle class="cls-1" cx="248" cy="248" r="248"/>
    <g id="Group_272_copy_2" data-name="Group 272 copy 2">
      <path class="cls-2" d="M2155.99,786.516c14.96,11.921,15.17,25.127,14.79,29.371-0.13.867-.18,1.4-0.18,1.4s0.1-.5.18-1.4c0.67-4.577,3.27-18.527,9.42-13.344,7.33,6.165,1.04,22.765,1.74,32.533s1.7,22.769,1.7,22.769l-29.67,4.585A250.683,250.683,0,0,1,2155.99,786.516Z" transform="translate(-2152 -583)"/>
      <path class="cls-3" d="M2400,1079a250.047,250.047,0,0,1-37.96-2.89c-2.51-14.51-5.42-28.59-8.5-41.9-12.96,2.38-26.98,4.45-41.17,5.67-21.54,1.86-35.21,1.98-43.89,1.39A247.984,247.984,0,0,1,2153.28,856.4l30.11-13.763s25.47,32.36,53.42,69.443a464.253,464.253,0,0,0,30.27,35.821c14.65-4.448,35.25-10.353,56.28-15.212-0.08-.209-0.12-0.327-0.12-0.327s93.11-23.73,180.31-24.615c33.49-.339,91,6.845,128.04,12.105C2595.86,1012.92,2505.65,1079,2400,1079Z" transform="translate(-2152 -583)"/>
      <path class="cls-4" d="M2458.95,1071.93l-36.27-31.17,24.88-35-44.97-55.155,31.82-36.976-27.08,37.893,52.85,48.388-21.73,27.31,34.56,40.85Q2466.065,1070.2,2458.95,1071.93Z" transform="translate(-2152 -583)"/>
      <path id="Ellipse_276_copy_2" data-name="Ellipse 276 copy 2" class="cls-2" d="M2632.3,858.732a155.368,155.368,0,0,1-131.94,75.649c-85.39.866-154.88-67.161-155.21-153.449s68.64-156.94,154.03-157.806a152.575,152.575,0,0,1,45.45,6.409,247.756,247.756,0,0,1,102.45,180.123C2644.54,822.914,2640.04,838.611,2632.3,858.732Z" transform="translate(-2152 -583)"/>
      <path class="cls-3" d="M2501.99,670.7c-61.17.621-119.67,14.641-119.67,14.641l-16-100.059A250.237,250.237,0,0,1,2400,583a247.519,247.519,0,0,1,193.87,93.353C2571.36,673.732,2535.49,670.364,2501.99,670.7Z" transform="translate(-2152 -583)"/>
      <path id="Ellipse_1_copy" data-name="Ellipse 1 copy" class="cls-5" d="M2616.56,746.058A51,51,0,0,1,2618.08,757c0.77,27.624-20.69,50.786-47.93,51.734s-49.94-20.678-50.71-48.3a50.638,50.638,0,0,1,5.2-23.876c-6.45-7.75-15.33-15.731-24.43-15.441-9.69.31-18.01,10.008-23.5,18.6a50.087,50.087,0,0,1,5.74,22.009c0.77,27.625-20.68,50.787-47.92,51.735s-49.95-20.678-50.72-48.3a51.928,51.928,0,0,1,.67-9.792l-8.19.285c-22.79.793-42.59-10.19-43.27-34.6l-0.02-.795a5.858,5.858,0,0,1,5.87-6.045c1.42-.049,6.06.494,6.18,4.669,0,0-7.73,25.913,41.77,24.191l1.38-.048a49.692,49.692,0,0,1,43.53-29.6,48.61,48.61,0,0,1,38.49,16.8c4.74-8.281,13.77-18.693,29.44-19.192,14.68-.469,24.65,9.064,30.35,16.954a49.342,49.342,0,0,1,37.35-19.278,48.846,48.846,0,0,1,44.45,25.318l16.25-.565c1.79,4.175,3.48,8.407,5.04,12.7A162.528,162.528,0,0,0,2616.56,746.058Z" transform="translate(-2152 -583)"/>
      <path class="cls-4" d="M2458.46,829.835c33.57-6.822,43.52,13.906,43.6,35.038s-25.05,43.38-56.75,49.314c-94.74,17.735-113.39-55.921-95.46-72.12,0.84-.766-1.24,36.851,45,23.2C2413.37,859.793,2445.57,832.455,2458.46,829.835Z" transform="translate(-2152 -583)"/>
      <path id="Ellipse_1_copy_3" data-name="Ellipse 1 copy 3" class="cls-6" d="M2439.73,902.033c-51.96,9.727-81.03-8.04-93.73-28.739-3.78-11.93-2.64-23.268,2.21-29.459a23.437,23.437,0,0,0,2.63,3.93c2.09,9.736,9.88,27.577,44.01,17.5,18.52-5.471,50.72-32.809,63.61-35.429,18.71-3.8,30.08.959,36.49,9.573a52.374,52.374,0,0,1,1.53,13.31C2496.56,873.849,2471.43,896.1,2439.73,902.033Z" transform="translate(-2152 -583)"/>
      <path id="Ellipse_1_copy_2" data-name="Ellipse 1 copy 2" class="cls-4" d="M2640.58,891.407c-14.93,16.792-42.52,29.085-86.93,21.682-31.74-5.291-57.04-27.029-57.12-48.16s9.7-42.06,43.32-35.919c12.92,2.358,45.32,29.041,63.88,34.136,34.27,9.4,41.89-8.687,43.89-18.45A247.721,247.721,0,0,1,2640.58,891.407Z" transform="translate(-2152 -583)"/>
      <path id="Ellipse_1_copy_4" data-name="Ellipse 1 copy 4" class="cls-6" d="M2643.8,876.6c-14.35,18.081-42.43,32.046-89.09,24.268-31.47-5.244-56.58-26.647-57.1-47.6,3.33-16.351,14.91-29.248,42.24-24.255,12.92,2.358,45.32,29.041,63.88,34.136,34.27,9.4,41.89-8.689,43.89-18.452A247.9,247.9,0,0,1,2643.8,876.6Z" transform="translate(-2152 -583)"/>
      <path id="Ellipse_25_copy" data-name="Ellipse 25 copy" class="cls-6" d="M2433.08,720.763a41.643,41.643,0,0,1,41.93,41.77c0.08,23.31-18.56,42.4-41.64,42.643a41.65,41.65,0,0,1-41.93-41.77C2391.36,740.1,2410,721,2433.08,720.763Zm0.43,18.147a24.19,24.19,0,0,1,24.27,24.346,24.6,24.6,0,0,1-24.1,24.851,24.182,24.182,0,0,1-24.26-24.346A24.6,24.6,0,0,1,2433.51,738.91Zm135.09-19.559c23-.24,41.71,18.473,41.79,41.795s-18.5,42.427-41.5,42.667-41.7-18.472-41.78-41.8S2545.6,719.592,2568.6,719.351Zm-0.19,18.167a24.154,24.154,0,0,1,24.18,24.361c0.05,13.593-10.7,24.725-24,24.864a24.154,24.154,0,0,1-24.18-24.36C2544.36,748.789,2555.11,737.657,2568.41,737.518Z" transform="translate(-2152 -583)"/>
    </g>
  </g>
</svg>
