<svg xmlns="http://www.w3.org/2000/svg" width="496" height="496" viewBox="0 0 496 496">
  <defs>
    <style>
      .cls-1 {
        fill: #9ccc65;
      }

      .cls-2 {
        fill: #fff;
      }

      .cls-2, .cls-3, .cls-4, .cls-5 {
        fill-rule: evenodd;
      }

      .cls-3 {
        fill: #a1887f;
      }

      .cls-4 {
        fill: #263238;
      }

      .cls-5 {
        fill: #536dfe;
      }
    </style>
  </defs>
  <g id="dog">
    <g id="dog-2" data-name="dog">
      <circle class="cls-1" cx="248" cy="248" r="248"/>
      <path id="DOG_BASE" data-name="DOG BASE" class="cls-2" d="M649.178,450.142c-20.245-5.064-34.73-13.121-44.794-22.56a87.736,87.736,0,0,1-4.081,9.584c2.343,12.72,5.546,32.6,17.6,58.81-0.634,0-1.264.024-1.9,0.024a248.817,248.817,0,0,1-55.208-6.176,152.511,152.511,0,0,1-2.75-16.174c-5.658,3.62-11.62,7.151-17.858,10.529A248.569,248.569,0,0,1,378.953,321.088c49.233-8.7,118.605-20.136,169.892-122.6,47.935-95.772,198.586-5.859,106.628,59.913-12.37,8.847-43.9,64.18-43.681,89.136,0.069,7.819.208,16.077,0.133,24.474a176.539,176.539,0,0,0,47.131,19.328c55.84,13.966,98.063-34.664,116.827,4.094C796.761,438.552,705.018,464.106,649.178,450.142Z" transform="translate(-368)"/>
      <path id="Ellipse_30_copy" data-name="Ellipse 30 copy" class="cls-2" d="M536.823,71.488c16.25-9.63,38.857,26.921,71.8,54.625,21.275,17.891-16.4,32.7-37.443,39.872s-36.566,12.251-46.359-11.3C514.794,130.568,513.748,85.163,536.823,71.488Z" transform="translate(-368)"/>
      <path id="Shape_3_copy_4" data-name="Shape 3 copy 4" class="cls-2" d="M591.117,303.014l-27.594,13.7c-13.957,6.924-27.18.845-39.6-6.686,0,0-20.474-24.967-18.148-26.312l-0.082-.166-4.588-15.6A120.487,120.487,0,0,1,513.349,174.1c5.295-8.9,11.311-17.788,19.6-24.706,16.318-13.589,40.361-16.436,88.18-27.043s78.9-23.058,97.384-28.7,28.967,23.059,28.967,23.059c8.783,25.772,8.169,69.31-54.042,121.911q-8.172,6.944-17.858,14.067c-19.541,14.427-43.742,29.419-73.625,44.8-2.575,1.348-5.206,2.673-7.879,4.034-0.971.472-1.982,0.982-2.973,1.474" transform="translate(-368)"/>
      <path id="Shape_3_copy_5" data-name="Shape 3 copy 5" class="cls-3" d="M705.873,229.062c19.945-21.758,45.059-54.42,33.785-115.928a49.173,49.173,0,0,0-3.421-11.535C750.49,115.927,779.071,158.165,705.873,229.062ZM727.8,96.907c-6.128-7.484-11.931-4.888-11.931-4.888s12.965-6.625,20.366,9.58c-3.463-3.481-6.085-5.322-6.189-5.517ZM691.8,101.274c-15.772,6.644-42.089,13.967-47.53,16.7-39.147,18.661-.217,51.835-13.809,102.089-8.694,32.144-40.883,69.679-50.842,109.59-11.606,46.517,22,125.093,35.767,166.339a248.8,248.8,0,0,1-53.859-6.009c-1.877-9.945-3.043-17.059-3.723-16.556-7.156,5.308-16.168,7.671-26.152,7.848a248.7,248.7,0,0,1-149-149.148,36.083,36.083,0,0,1,3.79-9.376c0.928-1.6,40.305-11.427,68.866-24.864,26.463-12.451,42.32-28.571,41.893-30.184-8.592-32.424-.489-65.587,16.154-93.6,0,0-52.281-55.32-43.221-64.819,2.452-2.57,62.645,37.835,65.714,35.488,11.471-8.771,29.064-10.473,34.547-12.261,23.683-7.72,50.221-10.107,73.022-17.253C632.056,118.815,675.278,107.3,691.8,101.274Z" transform="translate(-368)"/>
      <path class="cls-2" d="M460.466,117.319c23.03-29.813,26.062,35.669,69,33,27.73-1.725-4.74,9.4-15.033,29.112s-1.341,47.247-23.921,35.43S447.168,134.532,460.466,117.319Z" transform="translate(-368)"/>
      <path id="Rounded_Rectangle_40_copy" data-name="Rounded Rectangle 40 copy" class="cls-4" d="M702.46,96.545c14.884-6.356,24.927-15.272,31.789-7.276S748.118,110.9,739.891,118s-17.316,1.982-24.178-6.014S682.466,105.083,702.46,96.545Z" transform="translate(-368)"/>
      <path id="Ellipse_27_copy" data-name="Ellipse 27 copy" class="cls-4" d="M590.823,193.815c-11.973,8.143-28.544,4.631-37.011-7.844a5.248,5.248,0,1,1,8.672-5.9c5.08,7.484,15.023,9.591,22.207,4.706s8.89-14.915,3.81-22.4a5.248,5.248,0,1,1,8.672-5.9C605.64,168.958,602.8,185.671,590.823,193.815Z" transform="translate(-368)"/>
      <path class="cls-5" d="M548.573,300.9c38.25,14.745,86.88-9.284,78.435,12.676s-46.3,27.808-84.547,13.063-62.412-44.5-53.967-66.458S510.323,286.152,548.573,300.9Z" transform="translate(-368)"/>
    </g>
  </g>
</svg>
