<svg xmlns="http://www.w3.org/2000/svg" width="496" height="496" viewBox="0 0 496 496">
  <defs>
    <style>
      .cls-1 {
        fill: #7986cb;
      }

      .cls-2 {
        fill: #9fa8da;
      }

      .cls-2, .cls-3, .cls-4, .cls-5, .cls-6 {
        fill-rule: evenodd;
      }

      .cls-3 {
        fill: #ef5350;
      }

      .cls-4, .cls-7 {
        fill: #e3f2fd;
      }

      .cls-5 {
        fill: #bbdefb;
      }

      .cls-6 {
        fill: #90caf9;
      }

      .cls-8 {
        fill: #263238;
      }
    </style>
  </defs>
  <g id="fish">
    <circle class="cls-1" cx="248" cy="248" r="248"/>
    <path id="Ellipse_297_copy" data-name="Ellipse 297 copy" class="cls-2" d="M1371,736a22,22,0,1,1-22,22A22,22,0,0,1,1371,736Zm-67-105a38,38,0,1,1-38,38A38,38,0,0,1,1304,631Z" transform="translate(-960 -583)"/>
    <path class="cls-3" d="M1167.96,971.945c-21.1,15.189-87.85,31.775-105.77,50.485-2.37,2.47-8.96-30.307-2.19-44.43,6.34-13.232,9.79-19.29,28.89-32.057,22.21-14.853,22.06-41.959,22.06-41.959l69.68,24.076S1189.05,956.756,1167.96,971.945ZM1118,720c5.62,0.924-28,14-28,14L983.609,725.3a248.4,248.4,0,0,1,46.071-66.625c8.08,4.1,20.27,9.691,40.32,19.33C1133.41,708.489,1112.38,719.076,1118,720Z" transform="translate(-960 -583)"/>
    <path class="cls-4" d="M1067.5,949a362.032,362.032,0,0,1-82.765-9.918,248.505,248.505,0,0,1-.62-214.871A357.484,357.484,0,0,1,1067.5,714c158.78,0,287.5,119.555,287.5,117.5C1355,829.936,1226.28,949,1067.5,949Z" transform="translate(-960 -583)"/>
    <path id="Ellipse_294_copy" data-name="Ellipse 294 copy" class="cls-5" d="M1352.78,833.155c-26.48,10.72-284.46,32.229-392.041,16.816C960.265,843.707,960,837.385,960,831a247.01,247.01,0,0,1,24.115-106.789A357.484,357.484,0,0,1,1067.5,714c158.78,0,287.5,119.555,287.5,117.5A10.825,10.825,0,0,0,1352.78,833.155Z" transform="translate(-960 -583)"/>
    <path class="cls-6" d="M1172.97,932.449a147.471,147.471,0,0,1-.05-201.85C1279.55,763.363,1355,833.073,1355,831.5,1355,830.3,1279.57,899.793,1172.97,932.449Z" transform="translate(-960 -583)"/>
    <circle class="cls-7" cx="262.5" cy="246.5" r="46.5"/>
    <circle id="Ellipse_296_copy" data-name="Ellipse 296 copy" class="cls-8" cx="269.5" cy="247.5" r="34.5"/>
  </g>
</svg>
