<svg xmlns="http://www.w3.org/2000/svg" width="496" height="496" viewBox="0 0 496 496">
  <defs>
    <style>
      .cls-1 {
        fill: #90caf9;
      }

      .cls-2 {
        fill: #ff8f00;
      }

      .cls-2, .cls-3, .cls-4, .cls-5 {
        fill-rule: evenodd;
      }

      .cls-3 {
        fill: #fff;
      }

      .cls-4 {
        fill: #f9a825;
      }

      .cls-5 {
        fill: #263238;
      }
    </style>
  </defs>
  <g id="mouse">
    <circle class="cls-1" cx="248" cy="248" r="248"/>
    <path class="cls-2" d="M2611.73,402.823a247.991,247.991,0,0,1-390.7-4.138c1.34-82.768,108.85-183.14,199.68-182.7C2516.17,216.453,2617.83,319.671,2611.73,402.823Z" transform="translate(-2170)"/>
    <path class="cls-3" d="M2400.25,294c18.54,0,16.25,15.406,16.25,26.452S2409.22,334,2400.25,334,2384,331.5,2384,320.452,2391.28,294,2400.25,294Z" transform="translate(-2170)"/>
    <path id="Ellipse_291_copy_2" data-name="Ellipse 291 copy 2" class="cls-3" d="M2432.75,294c-18.54,0-16.25,15.406-16.25,26.452S2423.78,334,2432.75,334s16.25-2.5,16.25-13.548S2441.72,294,2432.75,294Z" transform="translate(-2170)"/>
    <path id="Ellipse_291_copy" data-name="Ellipse 291 copy" class="cls-4" d="M2543.44,182.113A88.623,88.623,0,1,1,2416.5,305.1a88.6,88.6,0,1,1-121.87-127.2,102.49,102.49,0,0,1,8.74-14.764,38.988,38.988,0,0,1-14.92-30.528c0-21.876,18.41-39.61,41.11-39.61a41.164,41.164,0,0,1,37.83,24.114,159.588,159.588,0,0,1,101.39-.008A41.164,41.164,0,0,1,2506.61,93c22.7,0,41.1,17.734,41.1,39.61a38.975,38.975,0,0,1-14.91,30.523A100.962,100.962,0,0,1,2543.44,182.113Z" transform="translate(-2170)"/>
    <path id="Ellipse_290_copy" data-name="Ellipse 290 copy" class="cls-5" d="M2358.96,182A15,15,0,1,1,2344,197,14.973,14.973,0,0,1,2358.96,182Zm117.24,0a15,15,0,1,1-14.79,15A14.9,14.9,0,0,1,2476.2,182Z" transform="translate(-2170)"/>
    <path class="cls-5" d="M2417.5,264c9.66,0,27.5,2.678,27.5,14s-17.84,27-27.5,27-24.5-16.678-24.5-28S2407.83,264,2417.5,264Z" transform="translate(-2170)"/>
  </g>
</svg>
