<svg xmlns="http://www.w3.org/2000/svg" width="496" height="496" viewBox="0 0 496 496">
  <defs>
    <style>
      .cls-1 {
        fill: #9ccc65;
      }

      .cls-2 {
        fill: #6d4c41;
      }

      .cls-2, .cls-3, .cls-4 {
        fill-rule: evenodd;
      }

      .cls-3 {
        fill: #fff;
      }

      .cls-4, .cls-5 {
        fill: #3e2723;
      }
    </style>
  </defs>
  <g id="кфиише_copy_2" data-name="кфиише copy 2">
    <circle class="cls-1" cx="248" cy="248" r="248"/>
    <path class="cls-2" d="M678.514,1659.96c-9.5-24.76-19.9-51.55-27.4-70.02C633.381,1546.3,599,1472,599,1472s-3.508,4.75-24,16c-10.464,5.75-25.9,9.7-34.708,11.06S481.228,1528.31,456,1524c-22.493-3.85-32.945-11.79-35.347-29.99-6.954-52.67,94.94-160.22,76.821-142.63,13.9-13.49,37.253-34.69,45.336-37.86s15.359-47.21,20.15-58.07c4.037-9.15,20.042-22.11,22.668,10.1s15.113,42.92,15.113,42.92,4.281-22.49,20.149-36.61,22.982-17.38,30.225-11.36-1.734,44.54-8.816,56.8,19.046-7.75,59.19,17.67c34.864,22.08,97.441,81.67,157.7,106.04C850.808,1546.04,776.989,1632.61,678.514,1659.96Z" transform="translate(-364 -1173)"/>
    <path class="cls-3" d="M512.421,1343.16c10.266-1.01,17.411,6.7,15.491,16.73-1.812,9.46-10.983,16.74-20.116,16.74-8.661,0-14.768-6.6-14-15.13C494.6,1352.5,502.739,1344.11,512.421,1343.16Z" transform="translate(-364 -1173)"/>
    <path id="Ellipse_298_copy_2" data-name="Ellipse 298 copy 2" class="cls-3" d="M568.421,1370.16c10.266-1.01,17.411,6.7,15.491,16.73-1.812,9.46-10.983,16.74-20.116,16.74-8.661,0-14.768-6.6-14-15.13C550.6,1379.5,558.739,1371.11,568.421,1370.16Z" transform="translate(-364 -1173)"/>
    <path class="cls-4" d="M514.475,1344.28a9.47,9.47,0,1,1-9.445,9.47A9.458,9.458,0,0,1,514.475,1344.28Z" transform="translate(-364 -1173)"/>
    <circle id="Ellipse_299_copy" data-name="Ellipse 299 copy" class="cls-5" cx="208.407" cy="208.03" r="9.438"/>
    <path class="cls-4" d="M859.455,1437.27a248.448,248.448,0,0,1-3.218,26.96c-30.159-3.59-55.8-11.25-74.149-24.49-31.484-22.72-45.337-40.39-45.337-40.39s-8.795,4.32-41.559-6.31-36.968-47.66-50.332-65.72a38.529,38.529,0,0,0-6.79-7.03,9.039,9.039,0,0,0,2.97-2.99c4.775-8.27,10.977-28.46,12.3-42.59,21.319,10.25,46.89,28.11,69.563,55.21C755.232,1368.58,794.026,1415.39,859.455,1437.27ZM629.3,1265.71c-2.142,1.75-4.5,3.8-7.149,6.15a61.616,61.616,0,0,0-18.891,32.82,12.7,12.7,0,0,0-1,6.63c-11.317,1.9-22.967,8.04-33.007,19.88,0,0-13.853-12.63-6.3-35.35s35.179-29.75,50.2-31.84C616.982,1263.47,622.534,1264.01,629.3,1265.71Z" transform="translate(-364 -1173)"/>
    <path class="cls-4" d="M485.262,1520.41c-1.613.29,33.124-12.41,48.522-29.37,17.68-19.47,16.944-30,16.944-30-0.122.07,1.241,28.64-12.69,38.04C523.488,1508.91,485.262,1520.41,485.262,1520.41Z" transform="translate(-364 -1173)"/>
  </g>
</svg>
