<svg xmlns="http://www.w3.org/2000/svg" width="496" height="496" viewBox="0 0 496 496">
  <defs>
    <style>
      .cls-1 {
        fill: #f8bbd0;
      }

      .cls-2 {
        fill: #ef5350;
      }

      .cls-2, .cls-3, .cls-4 {
        fill-rule: evenodd;
      }

      .cls-3 {
        fill: #1a237e;
      }

      .cls-4 {
        fill: #ffca28;
      }
    </style>
  </defs>
  <circle class="cls-1" cx="248" cy="248" r="248"/>
  <path id="Rounded_Rectangle_36_copy_3" data-name="Rounded Rectangle 36 copy 3" class="cls-2" d="M796.955,736.241a4.17,4.17,0,0,1,1.5,5.663l-6.538,11.446,6.467,11.32a4.236,4.236,0,0,1-1.527,5.755,4.146,4.146,0,0,1-5.7-1.542l-6.29-11.007c-0.073-.037-0.149-0.059-0.22-0.1a4.085,4.085,0,0,1-.926-0.765,97.556,97.556,0,0,1-26.616,1.941c-12.917-1.091-30.488-9.516-30.488-9.516-2.427,3.882-6.5,6.935-9.545,6.11a4.218,4.218,0,0,1-2.95-5.157,41.746,41.746,0,0,0,3.163-7.86,38.67,38.67,0,0,0,1.149-8.4,4.163,4.163,0,0,1,5.106-2.975c3.054,0.827,5.071,5.55,5.243,10.149a119.7,119.7,0,0,0,22.405,8.687c12.991,3.517,33.088-1.4,33.088-1.4,0.025-.015.044-0.035,0.069-0.049a4.079,4.079,0,0,1,1.084-.423l5.915-10.354A4.079,4.079,0,0,1,796.955,736.241Z" transform="translate(-364 -583)"/>
  <path class="cls-3" d="M526.7,866.434c46.035,41.278,208.333,67.316,274.337,125.072a248.269,248.269,0,0,1-114.784,76.184C668.54,993.106,556.344,973.961,518,957c-44.35-19.618-109.094-78.214-98-154,10.048-68.645,98.286-120.232,142.144-140.877,68.98-32.469,185.767,18.614,180.517,79.783-2.27,26.442-28.762,45.556-75.843,39.8-44.5-5.443-89.639-28.357-100.818-26.7C518.369,762.045,475.6,820.613,526.7,866.434Z" transform="translate(-364 -583)"/>
  <path class="cls-2" d="M722.442,1053.06a246.935,246.935,0,0,1-36.186,14.63c-5.071-21.35-17.891-38.15-34.5-51.67A49.523,49.523,0,0,1,722.442,1053.06ZM611,954a67.919,67.919,0,0,1-67.542-75.794c28.788,16.685,75.257,31.4,122.448,47.9A67.9,67.9,0,0,1,611,954ZM566,755c-25.753,3.809-50.074,22.682-58.916,46.456a40,40,0,1,1,59.723-46.515C566.529,754.954,566.246,754.964,566,755ZM461,854.5a49.4,49.4,0,0,1-18.525,38.6c-16.593-24.537-26.92-54.294-22.827-87.42A49.506,49.506,0,0,1,461,854.5Z" transform="translate(-364 -583)"/>
  <path id="Ellipse_27_copy_2" data-name="Ellipse 27 copy 2" class="cls-4" d="M637.669,720.455c-11.679-2.683-18.879-14.741-16.081-26.931a4.344,4.344,0,1,1,8.459,1.944c-1.679,7.314,2.641,14.548,9.649,16.158s14.05-3.013,15.729-10.327a4.344,4.344,0,1,1,8.459,1.944C661.086,715.433,649.349,723.139,637.669,720.455Z" transform="translate(-364 -583)"/>
</svg>
