<svg xmlns="http://www.w3.org/2000/svg" width="496" height="496" viewBox="0 0 496 496">
  <defs>
    <style>
      .cls-1 {
        fill: #90caf9;
      }

      .cls-2 {
        fill: #e3f2fd;
      }

      .cls-2, .cls-3, .cls-4, .cls-5, .cls-6 {
        fill-rule: evenodd;
      }

      .cls-3 {
        fill: #fff;
      }

      .cls-4 {
        fill: #546e7a;
      }

      .cls-5 {
        fill: #e57373;
      }

      .cls-6 {
        fill: #263238;
      }
    </style>
  </defs>
  <g id="кфиише">
    <circle class="cls-1" cx="248" cy="248" r="248"/>
    <path class="cls-2" d="M1759.96,806.2c-27.06,6.63-82.86-94.074-99.5-177.457a246.644,246.644,0,0,1,99.84-41.9C1788.93,668.626,1786.84,799.61,1759.96,806.2Z" transform="translate(-1556 -583)"/>
    <path id="Ellipse_297_copy_3" data-name="Ellipse 297 copy 3" class="cls-3" d="M1745.92,805.7c-23.29,6.61-71.27-93.6-85.71-176.779a246.871,246.871,0,0,1,86.87-39.343C1770.85,671.4,1768.81,799.2,1745.92,805.7Z" transform="translate(-1556 -583)"/>
    <path id="Ellipse_297_copy_2" data-name="Ellipse 297 copy 2" class="cls-2" d="M1837.89,809.16c-30.12-5.11-40.7-142.381-14.86-225.44a246.431,246.431,0,0,1,101.75,30.648C1916.49,700.166,1864.5,813.676,1837.89,809.16Z" transform="translate(-1556 -583)"/>
    <path id="Ellipse_297_copy_4" data-name="Ellipse 297 copy 4" class="cls-3" d="M1848.57,808.879c-25.98-5.08-35.21-140.679-13.33-223.926a246.37,246.37,0,0,1,88.79,28.994C1916.85,699.788,1871.69,813.4,1848.57,808.879Z" transform="translate(-1556 -583)"/>
    <path id="Rounded_Rectangle_35_copy" data-name="Rounded Rectangle 35 copy" class="cls-2" d="M2017.33,957.518a248.213,248.213,0,0,1-306.32,103.442c-24.13-46.58-32.59-107.86-24.74-162.584a118.432,118.432,0,0,1-12.27-52.63C1674,778.508,1730.02,724,1799.12,724s125.13,54.508,125.13,121.746a118.84,118.84,0,0,1-4.21,31.4C1966.05,885.667,2003.23,916.819,2017.33,957.518Z" transform="translate(-1556 -583)"/>
    <path id="Ellipse_298_copy" data-name="Ellipse 298 copy" class="cls-3" d="M1865,950c-23.35,0-47.11-17.209-64.5-28.728C1783.11,932.791,1759.35,950,1736,950c-44.74,0-71-26.415-71-59s26.26-59,71-59c23.35,0,47.11,7.209,64.5,18.728C1817.89,839.209,1841.65,832,1865,832c44.73,0,71,26.415,71,59S1909.73,950,1865,950Z" transform="translate(-1556 -583)"/>
    <path id="Rounded_Rectangle_36_copy_4" data-name="Rounded Rectangle 36 copy 4" class="cls-4" d="M1804.04,853v39.241c0.01,0.021.03,0.038,0.04,0.06a3.706,3.706,0,0,1,.36.94l8.79,5.129a3.572,3.572,0,0,1,1.28,4.86,3.491,3.491,0,0,1-4.8,1.3l-9.72-5.67-9.61,5.609a3.56,3.56,0,0,1-4.89-1.324,3.638,3.638,0,0,1,1.31-4.941l9.34-5.454c0.04-.063.05-0.13,0.09-0.191a3.457,3.457,0,0,1,.65-0.8V852.99" transform="translate(-1556 -583)"/>
    <path id="Ellipse_290_copy_2" data-name="Ellipse 290 copy 2" class="cls-5" d="M1800.14,841c8.34,0,22.86,1.764,22.86,9.219S1808.48,868,1800.14,868,1779,857.017,1779,849.561,1791.8,841,1800.14,841Z" transform="translate(-1556 -583)"/>
    <path id="Ellipse_25_copy_2" data-name="Ellipse 25 copy 2" class="cls-6" d="M1760.93,812.349a17.5,17.5,0,1,1,8.41-23.285A17.5,17.5,0,0,1,1760.93,812.349Zm1.19-17.815a5,5,0,1,1,2.4-6.656A5,5,0,0,1,1762.12,794.534Z" transform="translate(-1556 -583)"/>
    <path id="Ellipse_25_copy_3" data-name="Ellipse 25 copy 3" class="cls-6" d="M1848.93,812.349a17.5,17.5,0,1,1,8.41-23.285A17.5,17.5,0,0,1,1848.93,812.349Zm1.19-17.815a5,5,0,1,1,2.4-6.656A5,5,0,0,1,1850.12,794.534Z" transform="translate(-1556 -583)"/>
  </g>
</svg>
