<svg xmlns="http://www.w3.org/2000/svg" width="496" height="496" viewBox="0 0 496 496">
  <defs>
    <style>
      .cls-1 {
        fill: #f8bbd0;
      }

      .cls-2 {
        fill: #263238;
      }

      .cls-2, .cls-3, .cls-4, .cls-5 {
        fill-rule: evenodd;
      }

      .cls-3 {
        fill: #feed58;
      }

      .cls-4 {
        fill: #546e7a;
      }

      .cls-5 {
        fill: #ffee58;
      }
    </style>
  </defs>
  <g id="cat">
    <circle class="cls-1" cx="248" cy="248" r="248"/>
    <path id="Rounded_Rectangle_35" data-name="Rounded Rectangle 35" class="cls-2" d="M1069.25,198.945c-36.61,40.594-88.668,115.328-58.32,190.7q1.83,4.568,3.83,8.678A248.083,248.083,0,0,1,995,127.884c17.063-13.595,35.583-21.521,54.563-21.524C1073.72,106.356,1126.63,135.321,1069.25,198.945Zm294.83-50.572c48.87,74.907,47.65,212.768-.49,295.9a248,248,0,0,1-309.13-4.735,66.035,66.035,0,0,0,8.28,2.9,133.343,133.343,0,0,1-15.79-63.1V353.587a133.935,133.935,0,0,1,108.09-131.4v-7.683a117.457,117.457,0,0,1,25.24-72.928c-8.09-23.644-11.24-51.864,3.37-76.512,0.78-1.314,21.09,26.3,59.85,31.422a18.931,18.931,0,0,1,6.41,2.022,120.71,120.71,0,0,1,23.5-2.485A103.888,103.888,0,0,1,1297,98.486a18.919,18.919,0,0,1,6.37-2.007c38.78-5.129,59.11-32.754,59.89-31.44C1379.3,92.1,1373.92,123.479,1364.08,148.373Z" transform="translate(-964)"/>
    <path class="cls-3" d="M1221.02,147.522A36.073,36.073,0,1,1,1185,183.6,36.036,36.036,0,0,1,1221.02,147.522Zm5.15,15.459a20.613,20.613,0,1,1-20.58,20.616A20.588,20.588,0,0,1,1226.17,162.981Z" transform="translate(-964)"/>
    <path id="Rounded_Rectangle_36_copy_2" data-name="Rounded Rectangle 36 copy 2" class="cls-4" d="M1298.39,279.861a5.549,5.549,0,0,1-7.58,2.033l-15.31-8.839-15.15,8.744a5.639,5.639,0,0,1-5.64-9.766l14.73-8.5c0.05-.1.08-0.2,0.13-0.3a5.465,5.465,0,0,1,1.03-1.252V251.547c-5.87-1.824-11.24-6.083-11.24-10.347a5.643,5.643,0,0,1,5.64-5.639,55.449,55.449,0,0,0,11.26,1.408,51.311,51.311,0,0,0,11.27-1.411,5.633,5.633,0,0,1,5.63,5.637c0,4.275-5.4,8.544-11.28,10.362v11.174c0.02,0.033.04,0.059,0.06,0.092a5.845,5.845,0,0,1,.57,1.466l13.85,8A5.542,5.542,0,0,1,1298.39,279.861Z" transform="translate(-964)"/>
    <path id="Ellipse_25_copy" data-name="Ellipse 25 copy" class="cls-5" d="M1325.76,147.506a36.073,36.073,0,1,1-36.02,36.079A36.036,36.036,0,0,1,1325.76,147.506Zm-5.13,15.461a20.613,20.613,0,1,1-20.59,20.616A20.6,20.6,0,0,1,1320.63,162.967Z" transform="translate(-964)"/>
  </g>
</svg>
