<svg xmlns="http://www.w3.org/2000/svg" xmlns:xlink="http://www.w3.org/1999/xlink" width="383" height="383" viewBox="0 0 383 383">
  <defs>
    <style>
      .cls-1 {
        fill: #3949ab;
        filter: url(#filter);
      }

      .cls-2 {
        fill: #ffcdd2;
      }

      .cls-2, .cls-3, .cls-4, .cls-5 {
        fill-rule: evenodd;
      }

      .cls-3 {
        fill: #202d7a;
      }

      .cls-4 {
        fill: #536dfe;
      }

      .cls-5 {
        fill: #ffee58;
      }
    </style>
    <filter id="filter" x="0" y="0" width="383" height="383" filterUnits="userSpaceOnUse">
      <feOffset result="offset" dy="8" in="SourceAlpha"/>
      <feGaussianBlur result="blur" stdDeviation="8"/>
      <feFlood result="flood" flood-color="#0d166a" flood-opacity="0.61"/>
      <feComposite result="composite" operator="in" in2="blur"/>
      <feBlend result="blend" in="SourceGraphic"/>
    </filter>
  </defs>
  <circle id="Ellipse_276_copy_3" data-name="Ellipse 276 copy 3" class="cls-1" cx="191" cy="183" r="128"/>
  <path id="Ellipse_276_copy_2" data-name="Ellipse 276 copy 2" class="cls-2" d="M590,982a128,128,0,0,1,128,128c0,70.69-57.308,127-128,127s-128-56.31-128-127A128,128,0,0,1,590,982Z" transform="translate(-399 -936)"/>
  <path id="Rounded_Rectangle_35" data-name="Rounded Rectangle 35" class="cls-3" d="M717.988,1111.94A128,128,0,0,1,462,1111c0-1.51-.059-2.86-0.164-4.08,11.289-24.75,25.829-43.04-3.119-71.72-26.592-26.35,6.988-52.361,33.544-26.05,39.338,38.98,7.708,88.6,2.266,115.43-5.276,26.01,5.839,68.6,29.146,74.99a75.6,75.6,0,0,1-9.083-36.03l0-14.7c0.012-37.21,26.789-68.18,62.242-75.05v-4.39a66.769,66.769,0,0,1,14.543-41.65c-4.661-13.5-6.469-29.613,1.944-43.69,0.449-.751,12.14,15.019,34.459,17.94a10.963,10.963,0,0,1,3.686,1.15A70.905,70.905,0,0,1,645,1001.73a60.869,60.869,0,0,1,13.58,1.4,11.128,11.128,0,0,1,3.672-1.14c22.328-2.935,34.033-18.712,34.481-17.962,9.234,15.455,6.135,33.372.467,47.592C710.9,1052.45,717.758,1081.81,717.988,1111.94Z" transform="translate(-399 -936)"/>
  <path id="Rounded_Rectangle_36_copy_2" data-name="Rounded Rectangle 36 copy 2" class="cls-4" d="M659.37,1105.71a3.2,3.2,0,0,1-4.364,1.16l-8.818-5.04-8.722,4.99a3.261,3.261,0,0,1-4.435-1.18,3.208,3.208,0,0,1,1.189-4.4l8.482-4.85a1.494,1.494,0,0,1,.077-0.17,3.145,3.145,0,0,1,.59-0.72l0-5.96c-3.378-1.04-6.47-3.47-6.469-5.9a3.231,3.231,0,0,1,3.244-3.22,32.392,32.392,0,0,0,6.486.8,29.539,29.539,0,0,0,6.487-.81,3.23,3.23,0,0,1,3.243,3.22c0,2.44-3.11,4.88-6.5,5.92l0,6.38c0.012,0.02.028,0.03,0.039,0.05a3.176,3.176,0,0,1,.325.84l7.977,4.56A3.158,3.158,0,0,1,659.37,1105.71Z" transform="translate(-399 -936)"/>
  <path id="Ellipse_25_copy" data-name="Ellipse 25 copy" class="cls-5" d="M614.835,1030.14a20.6,20.6,0,1,1-20.746,20.61A20.661,20.661,0,0,1,614.835,1030.14Zm2.962,8.83a11.77,11.77,0,1,1-11.849,11.78A11.8,11.8,0,0,1,617.8,1038.97Zm57.344-8.84a20.6,20.6,0,1,1-20.745,20.6A20.646,20.646,0,0,1,675.141,1030.13Zm-2.954,8.83a11.77,11.77,0,1,1-11.862,11.77A11.8,11.8,0,0,1,672.187,1038.96Z" transform="translate(-399 -936)"/>
</svg>
