<svg xmlns="http://www.w3.org/2000/svg" width="480" height="552" viewBox="0 0 480 552">
  <defs>
    <style>
      .cls-1 {
        fill: #e8eaf6;
      }

      .cls-2 {
        fill: #ff5722;
      }

      .cls-2, .cls-3, .cls-4 {
        fill-rule: evenodd;
      }

      .cls-3 {
        fill: #3e2723;
      }

      .cls-4 {
        fill: #fff;
      }
    </style>
  </defs>
  <g id="Group_1_copy_3" data-name="Group 1 copy 3">
    <rect class="cls-1" width="480" height="552"/>
    <g>
      <path id="Ellipse_272_copy" data-name="Ellipse 272 copy" class="cls-2" d="M1980,366c-97.2,0-176-17.532-176-39.158a10.416,10.416,0,0,1,1.94-5.82l37.17-111.654h0.14C1846.13,193.041,1906.23,180,1980,180s133.87,13.041,136.75,29.368h0.14l37.17,111.654a10.416,10.416,0,0,1,1.94,5.82C2156,348.468,2077.2,366,1980,366Z" transform="translate(-1740)"/>
      <path id="Ellipse_272_copy_2" data-name="Ellipse 272 copy 2" class="cls-3" d="M1979.39,189.789c66.49,0,120.39,10.684,120.39,23.862s-53.9,23.862-120.39,23.862S1859,226.83,1859,213.651,1912.9,189.789,1979.39,189.789Z" transform="translate(-1740)"/>
      <path class="cls-4" d="M1997.36,283.328c-1.74,6.166-6.22,10.272-10.01,9.173s-5.45-6.992-3.71-13.157,6.22-10.272,10.01-9.173S1999.1,277.163,1997.36,283.328Zm-26.74-14.275c-3.9.631-6.25,6.276-5.25,12.609s4.96,10.957,8.86,10.326,6.24-6.276,5.24-12.608S1974.51,268.422,1970.62,269.053ZM1955.75,286.5c-3.62,1.46-4.84,6.992-2.74,12.355s6.75,8.526,10.37,7.065,4.84-6.993,2.73-12.356S1959.37,285.037,1955.75,286.5Zm49.65,3.971c-3.58-1.553-8.3,1.491-10.53,6.8s-1.15,10.869,2.43,12.421,8.29-1.491,10.53-6.8S2008.98,292.021,2005.4,290.469Zm-8.47,33.242c4.42-4.759-7.63-24.447-16.47-24.854-9.24-.427-23.31,20.78-18.49,25.67s13.67,0.815,18.49,0S1990.11,331.058,1996.93,323.711Z" transform="translate(-1740)"/>
    </g>
  </g>
</svg>
