<svg xmlns="http://www.w3.org/2000/svg" width="480" height="552" viewBox="0 0 480 552">
  <defs>
    <style>
      .cls-1 {
        fill: #ffcdd2;
      }

      .cls-2 {
        fill: #b0bec5;
      }

      .cls-2, .cls-3, .cls-4 {
        fill-rule: evenodd;
      }

      .cls-3 {
        fill: #fffefd;
      }

      .cls-4 {
        fill: #78909c;
      }
    </style>
  </defs>
  <g id="Group_1_copy_2" data-name="Group 1 copy 2">
    <rect class="cls-1" width="480" height="552"/>
    <g>
      <path class="cls-2" d="M1531.55,493.334a63.51,63.51,0,0,1-3.03,11.949l0.11-.031s-17.59,83.586-135.59,84.939a176.672,176.672,0,0,1-39.69,7.948c-33.14,2.766-43.61,5.28-35.63-20.475,4.22-13.652,14.62-29.028,40.12-25.347a25.725,25.725,0,0,0,8.53-.032l-58.84-54.268c-14.1,36.356-26.63,65.824-28.06,69.412-2.61,6.53-2.44,43.1-2.44,43.1L1231.42,613c-14.34-25.467,9.79-32.776,13.81-35.928l2.32-133.8-33.51-29.248-30.88,108.256c-4.73,14.233-23.37,42.366-41.37,51.092-27.93,13.538-57.7,3.761-57.7,3.761-3.91-27.426,39.11-36.569,39.11-36.569,16.95-2.612,27.37-48.323,27.37-48.323L1142.75,353.8c0.7-.084,1.38-0.118,2.07-0.178l-7.28-6.352s-41.72-49.629-31.29-116.237l3.91-50.935-53.49-49.269c-35.2-43.1-23.97-80.912-23.97-80.912l19.28-24.432c-0.41-8.69-4.66-108.16,17.77-124.55l0.43,0.638c1.02-1.95,3.48-.312,3.48-0.312l56.5,51.506c18.41-10.241,61.07-3.734,76.22-.977l2.2-2.207C1228.79-71.966,1301.14-102,1301.14-102c9.78,1.306,7.82,16.325,7.82,16.325a5.54,5.54,0,0,0-1.87-2.949l2.52,6.867c5.45,30.943-14.41,112.043-17.26,123.387a2.559,2.559,0,0,1-.34,1.339c-0.69,1.117-.2,10.792-0.81,12.99-5.08,18.358-5.05,69.29-5.05,69.29-2.77,28.662,35.19,35.263,35.19,35.263,132.97,7.836,204.36,216.753,204.36,216.753a289.655,289.655,0,0,1,10.83,56.452c135.17-113.517-16.81-194.068-26-202.1l-17.27-14.04c-48.8-40.426-87.78-90.916-110.56-150.115-1.91-4.962.78,2.719-1.33-2.383h0.57c-9.18-23.514,6.53-64.872,32.05-64.825,52.03,0.1,53.71,39.9,62.97,64.825a21.181,21.181,0,0,1,.85,2.945c24.29,74.891,105.02,125.982,105.02,125.982,70.08,44.028,78.1,99.552,78.1,99.552C1684.86,444.125,1562.09,485.45,1531.55,493.334Z" transform="translate(-1160)"/>
      <path class="cls-3" d="M1183.97,186.2s5.37,106.734,35.32,144.573c0,0,48.17,101.771,36.45,120.038L1134.65,345.125S1092.98,295.544,1103.4,229l3.91-50.886S1169.65,145.752,1183.97,186.2Z" transform="translate(-1160)"/>
      <path class="cls-4" d="M1662.31,356.467c-18.52,5.179-39.47,6.67-57.87,1.149a50.267,50.267,0,0,1-13.05-5.76q0.6-4.016.79-7.925a100.975,100.975,0,0,0,71.39-26.4A198.89,198.89,0,0,1,1662.31,356.467ZM1528.38,243.846c-9.15-6.529-16.1-10.7-17.85-12.23l-17.27-14.04q-9.75-8.071-18.94-16.68c11.41,4.031,35.69-8.864,45.73-15.4a288.365,288.365,0,0,0,26.87-19.476,314.1,314.1,0,0,0,34.86,27.3C1574.83,200.372,1544.91,231.082,1528.38,243.846Zm-52.02-180.43c0.19,0.56.39,1.115,0.6,1.662a21.181,21.181,0,0,1,.85,2.945c8.47,26.108,23.8,49.317,40.17,68.484a174.272,174.272,0,0,1-32.21,13.747c-17.58,5.305-37.76,7.423-49.36,9.875a346.819,346.819,0,0,1-53.71-92.668v-0.01C1412.05,82.942,1443.73,72.885,1476.36,63.417Zm90.69,352.817,62.59-.252C1611.17,427.973,1585.62,428.076,1567.05,416.233Zm-211.56-46.676c-129.79,27.272,30-44.913,55.84-50.909,36.66-8.512,64.96-33.756,63.69-42.831,3.62,5.21,12.95,18.571,14.79,24.631a2.676,2.676,0,0,0,1.22.9c4.96,8.973,9.39,17.615,13.3,25.654-11.71,8.67-27.68,20.145-45.99,29.827C1437.9,367.64,1387.91,362.747,1355.49,369.557Zm90.28-135.426c0.08,0.186.16,0.364,0.23,0.562-0.43-.6-0.78-1.122-1.1-1.605Zm3.77,5.183c-1.68-2.083-2.48-3.137-3.37-4.157-0.06-.156-0.11-0.314-0.17-0.464C1446.91,235.961,1448.06,237.488,1449.54,239.314Zm-57.48,64.5c-16.29,7.142-94.03.876-21.87-43.9,25.06-15.555,42.41-31.469,42.23-58.721-1.6-1.1.25-.731,3.31,2.683,11.04,8.619,19.39,20.051,29.24,30,0.46,0.468.84,0.876,1.2,1.29C1450.49,247.082,1452.39,277.355,1392.06,303.811Zm-30.69,220.433c19.74-92.943,77.72-140.917,160.94-155.259l0.32-.046c2.04,5.307,3.07,8.322,3.07,8.322a293.548,293.548,0,0,1,10.66,54.486c-0.03.388-.05,0.775-0.08,1.138-22.12-2.754-37.43-5.319-53.45,10.1-25.16,24.217-129.01,182.686-125.6,109.256,0.21,0.028.41,0.046,0.61,0.076a25.725,25.725,0,0,0,8.53-.032l-8.47-7.814C1358.57,538.766,1359.71,532.065,1361.37,524.244Zm-54.61-29.356c6.33-25.056,4.2-41.4,17.39-63.652,59.54-100.424,73.67-32.455,11.09,92.012-7.2-6.718-15.21-15.23-23.58-21.421l-4.13-3.81c-0.11.268-.21,0.53-0.31,0.8-0.38-.232-0.75-0.47-1.13-0.689ZM1235.01,302c20.26-13.507,33.79-23.471,53.95-37.158,66.25-44.96,78.59-33.307,17.56,28.347-20.62,20.827-63.95,55.863-67.59,75.385,0,0,.84,2.625,1.66,5.507,9.37,1.75,135.82,49.365,7.15,95.334-0.66-7.423.28-12.73,0-26.434-0.38-19.346-5.04-48.57-7.4-63.59-3.82-6.842-10.8-26.8-14.15-32.355-5.14-8.537-19.73-38.287-19.59-41.12C1206.99,298.289,1228.63,306.256,1235.01,302Zm4.9-159.582c20.42-6.059,37.25-23.648,46.58-37.187-0.35,11.407-.34,20.01-0.34,20.01-1.04,10.707,3.62,18.334,9.85,23.689-3.97,3.362-14.44,12.716-44.34,20.9C1163.27,194.032,1170.72,162.949,1239.91,142.422Zm28.4,67.553c11.97-6.283,52.6-37.488,54.72-48.219,0-.443,3.3-0.509,8.3-0.265a139.644,139.644,0,0,1,41.97,12.892c-18.86,19.32-65.78,45-83.44,58.11C1239.92,269.576,1125.41,285.012,1268.31,209.975Zm355.6,59.065c-7.76,17.089-19.33,37.856-33.91,52.455-4.07-16.716-13.21-31.493-23.91-44,10.73-6.375,23.05-15.877,32.33-28.354,6.87-9.242,12.57-19.725,17.93-29.32a184.073,184.073,0,0,1,15.33,16.4C1628.66,251.643,1625.38,265.812,1623.91,269.04Z" transform="translate(-1160)"/>
    </g>
  </g>
</svg>
