<svg xmlns="http://www.w3.org/2000/svg" width="480" height="552" viewBox="0 0 480 552">
  <defs>
    <style>
      .cls-1 {
        fill: #c3eaf1;
      }

      .cls-2 {
        fill: #bcaaa4;
      }

      .cls-2, .cls-3, .cls-4 {
        fill-rule: evenodd;
      }

      .cls-3 {
        fill: #fff;
      }

      .cls-4 {
        fill: #263238;
      }
    </style>
  </defs>
  <g id="Group_1" data-name="Group 1">
    <rect class="cls-1" width="480" height="552"/>
    <path class="cls-2" d="M3.16,182.532S-13.709-70.279,30.08-196.008c0,0,105.8,101.7,162.364,274.5L96.21,202.943Zm477.779,0s16.874-252.811-26.919-378.54c0,0-105.8,101.7-162.372,274.5l96.238,124.448Zm4.243,64.109c0,5.025-5.465,9.074-12.214,9.074-6.729,0-12.207-4.049-12.207-9.074,0-5,5.478-9.061,12.207-9.061C479.717,237.58,485.182,241.636,485.182,246.641Zm-328.394,0c0,5.025-5.485,9.074-12.222,9.074-6.72,0-12.206-4.049-12.206-9.074,0-5,5.486-9.061,12.206-9.061C151.3,237.58,156.788,241.636,156.788,246.641Z"/>
    <path id="Rounded_Rectangle_33" data-name="Rounded Rectangle 33" class="cls-3" d="M40.377,143.174S6.821-74.979,56.53-83.956c0,0,63.479,61.021,97.417,164.71L96.21,155.41Zm403.345,0s41.9-216.59-16.157-227.13c0,0-63.475,61.021-97.411,164.71l57.732,74.656Z"/>
    <path id="Rounded_Rectangle_34" data-name="Rounded Rectangle 34" class="cls-2" d="M480.565,145.106C409.261,39.682,272.471,46.011,238.5,46.011c-33.071,0-170.774-6.329-242.075,99.095C-82.66,262.032,70.739,523.894,231.076,541.558a64.491,64.491,0,0,0,14.818,0C406.232,523.894,559.635,262.032,480.565,145.106Z"/>
    <path id="Rounded_Rectangle_32" data-name="Rounded Rectangle 32" class="cls-3" d="M301.678,48.406c-19.966,56.627-31.666,82.816-30.636,120.686C272.9,237.34,315.507,285.3,375.329,327.724c36.923,26.192,35.695,81.068,29.35,119.261-45.209,50.837-101.551,88.268-158.785,94.573a64.491,64.491,0,0,1-14.818,0c-57.237-6.3-113.582-43.74-158.79-94.582-6.346-38.193-7.567-93.063,29.358-119.252C161.465,285.3,204.075,237.34,205.925,169.092c1.032-37.91-5.137-75.627-23.664-121.349,24.883-2.292,44.985-1.759,55.505-1.733l0.731,0,0.8,0C251.031,45.98,273.841,45.363,301.678,48.406Z"/>
    <path id="Rounded_Rectangle_31" data-name="Rounded Rectangle 31" class="cls-4" d="M364.839,255.68c-17.721,0-32.081-16.3-32.081-36.438s14.36-36.449,32.081-36.449,32.072,16.307,32.072,36.449S382.555,255.68,364.839,255.68Zm-71,253.741c40.29,0,47.83-46.534,48.126-48.524l0.245,0.037a4.429,4.429,0,0,1,8.363,1.263l0.235,0.035c-0.007.046-.081,0.5-0.224,1.236a4.426,4.426,0,0,1-.122.6c-1.986,9.629-13.548,54.267-56.623,54.267-31.451,0-46.25-24.021-52.76-40.772-6.491,16.751-21.3,40.772-52.743,40.772-48.031,0-56.892-55.551-56.983-56.1l0.374-.056a4.429,4.429,0,0,1,8.351-1.261l0.123-.018c0.012,0.082.042,0.267,0.081,0.5a4.428,4.428,0,0,1,.27,1.433c1.834,9.107,11.609,46.6,47.784,46.6,35.4,0,45.769-36.262,47.976-46.415-51.686-2.773-54.292-50.462-54.292-50.462,0-21,31.133-6.371,58.239-5.679,28.132,0.719,59.886-17.653,59.886,5.679,0,0-2.6,47.682-54.285,50.462C248.073,473.158,258.445,509.421,293.843,509.421ZM115.7,255.68c-17.726,0-32.088-16.3-32.088-36.438s14.362-36.449,32.088-36.449,32.091,16.307,32.091,36.449S133.407,255.68,115.7,255.68Z"/>
  </g>
</svg>
