<svg xmlns="http://www.w3.org/2000/svg" width="480" height="552" viewBox="0 0 480 552">
  <defs>
    <style>
      .cls-1 {
        fill: #fff;
      }

      .cls-2 {
        fill: #5c6dfa;
        fill-rule: evenodd;
      }
    </style>
  </defs>
  <rect class="cls-1" width="480" height="552"/>
  <path id="_" data-name="?" class="cls-2" d="M2621.39,242.63A38.175,38.175,0,0,0,2613.33,219q-8.07-10.636-21.95-16.576a76.789,76.789,0,0,0-30.47-5.936q-18.585,0-32.59,7.616t-21.73,19.04q-7.725,11.424-7.95,22.4a4.647,4.647,0,0,0,1.46,3.584,4.944,4.944,0,0,0,3.47,1.344h27.33a6.116,6.116,0,0,0,4.7-1.68,16.083,16.083,0,0,0,2.91-5.04,38.24,38.24,0,0,1,4.04-6.272,16.735,16.735,0,0,1,6.38-4.368q4.365-1.9,11.98-1.9,10.08,0,15.12,3.7a11.943,11.943,0,0,1,5.04,10.192,13.765,13.765,0,0,1-4.03,9.52,108.37,108.37,0,0,1-12.32,10.864q-7.845,6.273-12.54,10.864a46.684,46.684,0,0,0-8.18,10.864,28.7,28.7,0,0,0-3.47,14.112,6.116,6.116,0,0,0,6.05,6.048h27.33q4.47,0,6.04-6.048a23.4,23.4,0,0,1,5.6-9.856,128.527,128.527,0,0,1,12.1-10.752q7.845-6.495,12.43-11.088a42.454,42.454,0,0,0,7.95-11.424,34.822,34.822,0,0,0,3.36-15.568h0ZM2580.4,349.478V326.854a6.116,6.116,0,0,0-6.05-6.048h-28.22a6.116,6.116,0,0,0-6.05,6.048v22.624a6.116,6.116,0,0,0,6.05,6.048h28.22a6.116,6.116,0,0,0,6.05-6.048h0Z" transform="translate(-2320)"/>
</svg>
