<svg xmlns="http://www.w3.org/2000/svg" width="480" height="552" viewBox="0 0 480 552">
  <defs>
    <style>
      .cls-1 {
        fill: #b9f6ca;
      }

      .cls-2 {
        fill: #3e2723;
      }

      .cls-2, .cls-3, .cls-4 {
        fill-rule: evenodd;
      }

      .cls-3 {
        fill: #69f0ae;
      }

      .cls-4 {
        fill: #5d4037;
      }
    </style>
  </defs>
  <g id="Group_1_copy" data-name="Group 1 copy">
    <rect class="cls-1" width="480" height="552"/>
    <g>
      <path id="Rounded_Rectangle_33" data-name="Rounded Rectangle 33" class="cls-2" d="M743.706,74.945c18.469,10.6-20.2,71.937,5.128,110.039,20.2,30.381,28.76,15.751,33.66,26.323,5.7,12.309-4.374,16.21-17.646,16.66-2.953.1-21-1.591-36.848-19.967-42.679-49.49-23.522-102.924-14.68-117.8C723.44,73.179,733.828,69.277,743.706,74.945Zm121.8,227.683s-16.657,137.56-8.789,159.638c3.275,9.193-4.124,30.387-21.071,31.183-17.774.836-29.675-12.389-29.5-20.227,0.217-9.738-.639-157.159-0.639-157.159Z" transform="translate(-580)"/>
      <path class="cls-3" d="M777.774,121.6a2,2,0,0,1-.935-2.67l-0.009,0a43.99,43.99,0,0,0-20.567-58.713l0-.009A2,2,0,0,1,758,56.6a48,48,0,0,1,22.442,64.066A2,2,0,0,1,777.774,121.6Zm-91.73-12.685a2,2,0,1,1-3.91.84A48,48,0,0,1,718.987,52.75a2,2,0,0,1,.84,3.911V56.67a43.99,43.99,0,0,0-33.774,52.245Z" transform="translate(-580)"/>
      <path id="Ellipse_24_copy" data-name="Ellipse 24 copy" class="cls-3" d="M790.253,145.377a2.952,2.952,0,0,1-.316-4.166l-0.01-.009a64.931,64.931,0,0,0-6.939-91.634L783,49.557a2.954,2.954,0,1,1,3.855-4.478,70.847,70.847,0,0,1,7.571,99.986A2.959,2.959,0,0,1,790.253,145.377Zm-124.17-16.655a2.935,2.935,0,0,1-1.287,3.961,2.966,2.966,0,0,1-3.983-1.276,70.466,70.466,0,0,1,30.88-95.066,2.967,2.967,0,0,1,3.983,1.276,2.936,2.936,0,0,1-1.287,3.961l0.007,0.013a64.579,64.579,0,0,0-28.3,87.125Z" transform="translate(-580)"/>
      <path id="Rounded_Rectangle_32" data-name="Rounded Rectangle 32" class="cls-4" d="M1060,408.379c-11,2.757-36.08,8.218-66.077,4.179-37.37-5.038-79.466-37.093-115.29-48.9-40.268-13.27-69.746,2.595-100.3,46.354-9.384,13.44-15.69,50.785-4.214,77.538,4.306,10.038-5.047,31.277-24.443,31.183-20.179-.1-23.412-9.019-29.5-21.913-7.051-14.936-16.969-158.935-12.328-185.02,5.186-29.138,17.342-60.009,38.437-81.29,25.381-25.6,55.435-31.818,90.339-32.828q66.226-1.918,132.457-4.877v0.33c38.928-7.492,65.708-19.348,67.188-38.8,2-26.291,11.17-54.1,23.73-79.243V408.379Z" transform="translate(-580)"/>
    </g>
  </g>
</svg>
