<svg xmlns="http://www.w3.org/2000/svg" width="48" height="48" viewBox="0 0 48 48">
  <defs>
    <style>
      .cls-1 {
        fill: #ffcdd2;
        fill-rule: evenodd;
      }
      .cls-2 {
        fill: #536dfe;
      }
    </style>
  </defs>
  <rect class="cls-2" width="48" height="48"/>
  <path id="пульмун" class="cls-1" d="M41.87,40C36.824,40,25,34.864,25,27.684c0-.23.008-0.456,0.012-0.684H25V7h4v7.993A4.987,4.987,0,0,1,32.029,14c5.047,0,10.671,5.82,12.653,13C46.6,33.934,46.917,40,41.87,40ZM6.13,40C1.083,40,1.4,33.934,3.318,27,5.3,19.82,10.924,14,15.971,14A4.987,4.987,0,0,1,19,14.993V7h4V27H22.988c0,0.228.012,0.454,0.012,0.684C23,34.864,11.177,40,6.13,40Z"/>
</svg>
