<svg xmlns="http://www.w3.org/2000/svg" xmlns:xlink="http://www.w3.org/1999/xlink" width="310" height="365" viewBox="0 0 310 365">
  <defs>
    <style>
      .cls-1 {
        fill: #42a5f5;
        filter: url(#filter);
      }

      .cls-1, .cls-2, .cls-4, .cls-5, .cls-6, .cls-7, .cls-8 {
        fill-rule: evenodd;
      }

      .cls-2 {
        fill: #bcaaa4;
      }

      .cls-3 {
        fill: #90caf9;
      }

      .cls-4 {
        fill: #a1887f;
      }

      .cls-5 {
        fill: #fff;
      }

      .cls-6 {
        fill: #efebe9;
      }

      .cls-7 {
        fill: #263238;
      }

      .cls-8 {
        fill: #8d6e63;
      }
    </style>
    <filter id="filter" x="810" y="3228" width="310" height="310" filterUnits="userSpaceOnUse">
      <feOffset result="offset" dy="32" in="SourceAlpha"/>
      <feGaussianBlur result="blur" stdDeviation="6.928"/>
      <feFlood result="flood" flood-color="#01579b" flood-opacity="0.26"/>
      <feComposite result="composite" operator="in" in2="blur"/>
      <feBlend result="blend" in="SourceGraphic"/>
    </filter>
  </defs>
  <g>
    <path id="Ellipse_276_copy_3" data-name="Ellipse 276 copy 3" class="cls-1" d="M964.333,3243.25A107.375,107.375,0,1,1,857,3350.63,107.364,107.364,0,0,1,964.333,3243.25Z" transform="translate(-810 -3173)"/>
    <path id="Rounded_Rectangle_32_copy" data-name="Rounded Rectangle 32 copy" class="cls-2" d="M919.237,3448.08a145.458,145.458,0,0,1-21.888-20.25c-2.568-15.5-3.062-37.77,11.878-48.4,24.2-17.22,41.445-36.68,42.193-64.38,0.418-15.38-2.078-30.69-9.574-49.24a214.324,214.324,0,0,1,22.458-.71c0.11,0.01.209,0.01,0.3,0.01s0.2,0,.325-0.01a205.562,205.562,0,0,1,25.239.98c-8.078,22.98-12.812,33.61-12.4,48.97,0.752,27.7,17.991,47.16,42.193,64.38,14.94,10.63,14.45,32.9,11.88,48.4a146.627,146.627,0,0,1-21.03,19.61A107.511,107.511,0,0,1,919.237,3448.08Z" transform="translate(-810 -3173)"/>
    <circle id="Ellipse_276_copy_2" data-name="Ellipse 276 copy 2" class="cls-3" cx="154.33" cy="169.675" r="107.33"/>
    <g>
      <path class="cls-4" d="M869.231,3320.04s-6.548-89.55,7.746-142.55c1.465-5.43,6.954-6.44,12.5-.25,14.278,15.91,40.058,51.29,56.245,100.75l-38.891,50.3Zm193.089,0s3.38-48.38-.4-95.1c-1.38-17.04,21.45,7.58,17.66,21.75-1.78,6.61-8.68,4.17-11.91.19-6.96-8.56-42.83-47.97-53.81-29.76a297.393,297.393,0,0,0-28.042,60.87l38.892,50.3Zm1.71,25.92c0,2.03-2.21,3.67-4.93,3.67s-4.94-1.64-4.94-3.67,2.22-3.66,4.94-3.66S1064.03,3343.93,1064.03,3345.96Zm-132.712,0c0,2.03-2.217,3.67-4.94,3.67s-4.933-1.64-4.933-3.67,2.217-3.66,4.933-3.66S931.318,3343.93,931.318,3345.96Z" transform="translate(-810 -3173)"/>
      <path id="Rounded_Rectangle_33" data-name="Rounded Rectangle 33" class="cls-5" d="M884.272,3304.14s-13.561-88.18,6.528-91.81c0,0,25.654,24.66,39.369,66.57l-23.333,30.18Zm163.008,0s16.93-87.55-6.53-91.81c0,0-25.66,24.66-39.37,66.57l23.33,30.18Z" transform="translate(-810 -3173)"/>
      <path id="Rounded_Rectangle_34" data-name="Rounded Rectangle 34" class="cls-4" d="M1062.17,3304.92c20.15,29.81,2.92,82.94-28.82,119.89a108.444,108.444,0,0,1-138.028.01c-31.738-36.96-48.976-90.09-28.813-119.9,28.814-42.62,84.465-40.06,97.829-40.06C978.068,3264.86,1033.35,3262.3,1062.17,3304.92Z" transform="translate(-810 -3173)"/>
      <path id="Rounded_Rectangle_32" data-name="Rounded Rectangle 32" class="cls-6" d="M897.1,3426.26c-2.335-15.4-2.319-36.55,12.126-46.83,24.2-17.22,41.445-36.68,42.193-64.38,0.418-15.38-2.078-30.69-9.574-49.24a214.324,214.324,0,0,1,22.458-.71c0.11,0.01.209,0.01,0.3,0.01s0.2,0,.325-0.01a205.562,205.562,0,0,1,25.239.98c-8.078,22.98-12.812,33.61-12.4,48.97,0.752,27.7,17.991,47.16,42.193,64.38,14.3,10.17,14.46,31.01,12.19,46.36A108.458,108.458,0,0,1,897.1,3426.26Z" transform="translate(-810 -3173)"/>
      <path id="Ellipse_277_copy" data-name="Ellipse 277 copy" class="cls-7" d="M1030.83,3345.94a4.844,4.844,0,0,1-6.6-1.76l-8.58-14.82-8.58,14.82a4.824,4.824,0,0,1-8.364-4.81l11.724-20.25a7.116,7.116,0,0,1,10.44,0l11.73,20.25A4.8,4.8,0,0,1,1030.83,3345.94Zm-39.325,86.12a19.287,19.287,0,0,0,19.315-19.26h0.26a3.923,3.923,0,0,1-.26-1.37,4.14,4.14,0,1,1,8.03,1.37h0.25a27.6,27.6,0,0,1-53.812,8.56,27.6,27.6,0,0,1-53.813-8.56h0.254a4.061,4.061,0,0,1-.254-1.37,4.14,4.14,0,0,1,8.279,0,4.06,4.06,0,0,1-.253,1.37h0.253a19.318,19.318,0,0,0,38.635,0h0.28a16.545,16.545,0,1,1,13.217,0h0.3A19.286,19.286,0,0,0,991.505,3432.06Zm-62.782-86.12a4.839,4.839,0,0,1-6.6-1.76l-8.581-14.82-8.581,14.82a4.825,4.825,0,0,1-8.365-4.81l11.729-20.25a7.109,7.109,0,0,1,10.434,0l11.729,20.25A4.8,4.8,0,0,1,928.723,3345.94Z" transform="translate(-810 -3173)"/>
      <path id="Ellipse_15_copy" data-name="Ellipse 15 copy" class="cls-8" d="M1079.58,3246.69c-1.78,6.61-8.68,4.17-11.91.19-6.96-8.56-42.74-47.91-53.81-29.76C1038.72,3176.35,1082.29,3227.85,1079.58,3246.69Z" transform="translate(-810 -3173)"/>
    </g>
  </g>
</svg>
