<svg xmlns="http://www.w3.org/2000/svg" xmlns:xlink="http://www.w3.org/1999/xlink" width="311" height="337" viewBox="0 0 311 337">
  <defs>
    <style>
      .cls-1 {
        fill: #f48fb1;
        filter: url(#filter);
      }

      .cls-1, .cls-2, .cls-3, .cls-4, .cls-5, .cls-6, .cls-7, .cls-8 {
        fill-rule: evenodd;
      }

      .cls-2, .cls-6 {
        fill: #efebe9;
      }

      .cls-2 {
        opacity: 0.87;
      }

      .cls-3 {
        fill: #f8bbd0;
      }

      .cls-4 {
        fill: #a1887f;
      }

      .cls-5 {
        fill: #fff;
      }

      .cls-7 {
        fill: #263238;
      }

      .cls-8 {
        fill: #8d6e63;
      }
    </style>
    <filter id="filter" x="809" y="3227" width="311" height="311" filterUnits="userSpaceOnUse">
      <feOffset result="offset" dy="32" in="SourceAlpha"/>
      <feGaussianBlur result="blur" stdDeviation="6.928"/>
      <feFlood result="flood" flood-color="#cf6e61" flood-opacity="0.44"/>
      <feComposite result="composite" operator="in" in2="blur"/>
      <feBlend result="blend" in="SourceGraphic"/>
    </filter>
  </defs>
  <path id="Ellipse_276_copy_3" data-name="Ellipse 276 copy 3" class="cls-1" d="M963.815,3242.58A107.71,107.71,0,1,1,856,3350.29,107.76,107.76,0,0,1,963.815,3242.58Z" transform="translate(-809 -3201)"/>
  <path id="Rounded_Rectangle_32_copy" data-name="Rounded Rectangle 32 copy" class="cls-2" d="M918.517,3448.05a145.854,145.854,0,0,1-21.988-20.32c-2.579-15.55-3.075-37.89,11.932-48.55,24.313-17.27,41.631-36.79,42.383-64.58,0.419-15.43-2.088-30.79-9.618-49.4a215.513,215.513,0,0,1,22.559-.7h0.622a204.821,204.821,0,0,1,25.353.97c-8.115,23.05-12.869,33.72-12.451,49.13,0.755,27.79,18.072,47.31,42.381,64.58,15.01,10.67,14.51,33.01,11.93,48.55a146.678,146.678,0,0,1-21.12,19.68A108.143,108.143,0,0,1,918.517,3448.05Z" transform="translate(-809 -3201)"/>
  <path id="Ellipse_276_copy_2" data-name="Ellipse 276 copy 2" class="cls-3" d="M963.815,3235a107.766,107.766,0,0,1,107.815,107.71c0,59.49-48.27,106.87-107.815,106.87S856,3402.2,856,3342.71A107.766,107.766,0,0,1,963.815,3235Z" transform="translate(-809 -3201)"/>
  <g>
    <path class="cls-4" d="M868.286,3319.61s-2.287-31.24-1.22-67.77c0.743-25.43,3.021,23.95,8.944,45.76,1.479,5.45-7.086-22.73-1.479-28.94,10.638-11.78,41.548-58.12,56.2-27.26a307.4,307.4,0,0,1,14.4,36.02l-39.066,50.47Zm193.954,0s3.39-48.54-.4-95.4c-1.38-17.1,21.54,7.59,17.73,21.81-1.78,6.63-8.71,4.18-11.95.2-7-8.6-43.03-48.13-54.05-29.86a297.869,297.869,0,0,0-28.174,61.06l39.064,50.47Zm1.72,25.99c0,2.04-2.22,3.68-4.96,3.68s-4.95-1.64-4.95-3.68,2.22-3.67,4.95-3.67S1063.96,3343.57,1063.96,3345.6Zm-133.309,0c0,2.04-2.227,3.68-4.962,3.68s-4.955-1.64-4.955-3.68,2.227-3.67,4.955-3.67S930.651,3343.57,930.651,3345.6Z" transform="translate(-809 -3201)"/>
    <path id="Rounded_Rectangle_33" data-name="Rounded Rectangle 33" class="cls-5" d="M883.4,3303.65s3.224-63.21,23.4-66.85c0,0,8.923-.51,22.7,41.54l-23.438,30.27Zm163.735,0s17.01-87.83-6.56-92.1c0,0-25.77,24.74-39.54,66.79l23.43,30.27Z" transform="translate(-809 -3201)"/>
    <path id="Rounded_Rectangle_34" data-name="Rounded Rectangle 34" class="cls-4" d="M1062.09,3304.43c20.24,29.91,2.93,83.21-28.95,120.28a109.051,109.051,0,0,1-138.646,0c-31.881-37.07-49.2-90.37-28.943-120.28,28.944-42.75,84.844-40.18,98.269-40.18C977.611,3264.25,1033.14,3261.68,1062.09,3304.43Z" transform="translate(-809 -3201)"/>
    <path id="Rounded_Rectangle_32" data-name="Rounded Rectangle 32" class="cls-6" d="M896.281,3427c-2.346-15.44-2.33-36.67,12.18-46.98,24.313-17.27,41.631-36.79,42.383-64.58,0.419-15.43-2.088-31.63-9.618-50.24a215.513,215.513,0,0,1,22.559-.7h0.622a204.821,204.821,0,0,1,25.353.97c-8.115,23.05-12.869,34.56-12.451,49.97,0.755,27.79,18.072,47.31,42.381,64.58,14.37,10.21,14.52,31.11,12.25,46.51A109.043,109.043,0,0,1,896.281,3427Z" transform="translate(-809 -3201)"/>
    <path id="Rounded_Rectangle_31" data-name="Rounded Rectangle 31" class="cls-7" d="M1015.11,3349.27c-7.2,0-13.03-6.61-13.03-14.78s5.83-14.78,13.03-14.78,13.02,6.62,13.02,14.78S1022.3,3349.27,1015.11,3349.27Zm-101.141,0c-7.2,0-13.026-6.61-13.026-14.78s5.831-14.78,13.026-14.78S927,3326.33,927,3334.49,921.159,3349.27,913.969,3349.27Z" transform="translate(-809 -3201)"/>
    <path id="Ellipse_277_copy" data-name="Ellipse 277 copy" class="cls-7" d="M984.872,3439.49v0.05l-0.323-.09a4.272,4.272,0,0,1-1.516-.4,27.722,27.722,0,0,1-18.259-17.8,27.722,27.722,0,0,1-18.928,17.98,3.794,3.794,0,0,1-.753.19c-0.218.05-.431,0.12-0.651,0.17v-0.1a4.21,4.21,0,1,1,0-8.42v-0.05a19.316,19.316,0,0,0,13.4-18.36h0.281a16.619,16.619,0,1,1,13.276,0h0.3a19.327,19.327,0,0,0,13.168,18.28v0.13A4.21,4.21,0,1,1,984.872,3439.49Z" transform="translate(-809 -3201)"/>
    <path id="Ellipse_15_copy" data-name="Ellipse 15 copy" class="cls-8" d="M1079.57,3246.02c-1.78,6.63-8.71,4.18-11.95.2-7-8.6-42.94-48.07-54.05-29.86C1038.54,3175.46,1082.3,3227.12,1079.57,3246.02Z" transform="translate(-809 -3201)"/>
    <path class="cls-8" d="M866.08,3244.06c-0.153-.32-14.588,29.17-8.65,51.1,1.483,5.48,8.834,6.66,14.561.51,10.794-11.57,34.542-80.49,57.279-56.82C909.721,3210.99,862.3,3238.5,866.08,3244.06Z" transform="translate(-809 -3201)"/>
  </g>
</svg>
